<svg xmlns="http://www.w3.org/2000/svg" viewBox="0 0 300 300" width="80" height="80">
  <g id="ba038511-7b27-4e67-baca-a6350c121334" data-name="Layer 3">
    <g>
      <rect x="33" y="72.7" width="13.79" height="13.61" style="fill: #fff"/>
      <rect x="33.06" y="93.21" width="13.73" height="51.33" style="fill: #fff"/>
      <path d="M89.07,112.88c-1-6.3-5.28-9.78-11.69-9.78-6.12,0-10.68,3.72-11.46,9.78ZM76.78,92.61c15.65,0,26.26,9.59,26.44,24.65a26.77,26.77,0,0,1-.42,4.79H65.56v.42c.6,7.38,4.8,12,12.06,12,5.69,0,9.65-2.52,10.85-7.32h13.85c-1.62,10-10.25,18-23.74,18-17.4,0-27.77-10.25-27.77-26.14.12-16.08,10.49-26.39,26-26.39" style="fill: #fff"/>
      <polygon points="99.92 93.21 116 93.21 126.67 108.38 137.59 93.21 152.64 93.21 134.59 118.4 153.66 144.54 137.59 144.54 125.77 128.47 114.14 144.54 99.03 144.54 118.1 118.4 99.92 93.21" style="fill: #fff"/>
      <path d="M56.57,227.3C40.31,227.3,30,216.81,30,201c0-16,10.43-26.32,26.63-26.32,13.91,0,22.85,7.61,24.82,19.85H66.82c-1.2-5-4.92-8.34-10.31-8.34-7.44,0-12.12,6-12.12,14.81s4.74,14.82,12.12,14.82c5.63,0,9.29-3.3,10.43-8.64H81.45C79.66,219.57,70.6,227.3,56.57,227.3" style="fill: #fff"/>
      <rect x="86.13" y="156.54" width="14.15" height="70.1" style="fill: #fff"/>
      <path d="M145,200.91c0-8.69-4.92-14.81-12.83-14.81s-12.71,6.12-12.71,14.81,4.79,14.82,12.71,14.82S145,209.67,145,200.91m-39.94,0c0-15.83,10.74-26.32,27.17-26.32s27.17,10.49,27.17,26.32-10.74,26.33-27.17,26.33-27.17-10.49-27.17-26.33" style="fill: #fff"/>
      <path d="M212.67,175.19V226.7H200.13l-1.31-6.24c-3.3,4-7.8,6.84-15.12,6.84-10.61,0-20.45-5.4-20.45-24.17V175.19h14.16v26.26c0,9.12,3,14.16,10,14.16s11.1-5.52,11.1-15.06V175.19Z" style="fill: #fff"/>
      <path d="M256,201c0-8.81-4.8-14.93-12.54-14.93s-12.59,6-12.59,14.81,4.92,14.82,12.59,14.82S256,209.73,256,201m14-44.49v70.1H257.65l-1.38-7.13a19,19,0,0,1-15.84,7.73c-13.85,0-23.92-10.13-23.92-26.45,0-15.95,10.13-26.26,23.86-26.26,7.14,0,12.24,2.82,15.54,7V156.48H270Z" style="fill: #fff"/>
    </g>
  </g>
</svg>
